<?xml version="1.0" encoding="utf-8"?>
<!-- Generator: Adobe Illustrator 23.0.1, SVG Export Plug-In . SVG Version: 6.00 Build 0)  -->
<svg version="1.1" id="Layer_1" xmlns="http://www.w3.org/2000/svg" xmlns:xlink="http://www.w3.org/1999/xlink" x="0px" y="0px"
	 viewBox="0 0 270 270" style="enable-background:new 0 0 270 270;" xml:space="preserve">
<g fill="#798D99">
	<g>
		<path d="M60.8,168.8c0,14.8-12.1,26.9-26.9,26.9S7,183.6,7,168.8c0-14.8,12.1-26.9,26.9-26.9h26.9V168.8z"/>
		<path d="M74.3,168.8c0-14.8,12.1-26.9,26.9-26.9s26.9,12.1,26.9,26.9v67.3c0,14.8-12.1,26.9-26.9,26.9s-26.9-12.1-26.9-26.9
			C74.3,236.1,74.3,168.8,74.3,168.8z"/>
	</g>
	<g>
		<path d="M101.2,60.8c-14.8,0-26.9-12.1-26.9-26.9S86.4,7,101.2,7s26.9,12.1,26.9,26.9v26.9H101.2z"/>
		<path d="M101.2,74.3c14.8,0,26.9,12.1,26.9,26.9s-12.1,26.9-26.9,26.9H33.9C19.1,128.1,7,116,7,101.2s12.1-26.9,26.9-26.9
			C33.9,74.3,101.2,74.3,101.2,74.3z"/>
	</g>
	<g>
		<path d="M209.2,101.2c0-14.8,12.1-26.9,26.9-26.9c14.8,0,26.9,12.1,26.9,26.9s-12.1,26.9-26.9,26.9h-26.9V101.2z"/>
		<path d="M195.7,101.2c0,14.8-12.1,26.9-26.9,26.9c-14.8,0-26.9-12.1-26.9-26.9V33.9C141.9,19.1,154,7,168.8,7
			c14.8,0,26.9,12.1,26.9,26.9V101.2z"/>
	</g>
	<g>
		<path d="M168.8,209.2c14.8,0,26.9,12.1,26.9,26.9c0,14.8-12.1,26.9-26.9,26.9c-14.8,0-26.9-12.1-26.9-26.9v-26.9H168.8z"/>
		<path d="M168.8,195.7c-14.8,0-26.9-12.1-26.9-26.9c0-14.8,12.1-26.9,26.9-26.9h67.3c14.8,0,26.9,12.1,26.9,26.9
			c0,14.8-12.1,26.9-26.9,26.9H168.8z"/>
	</g>
</g>
</svg>
